HIERARCHY
ROOT Hips
{
	OFFSET 0.000000 0.000000 0.000000
	CHANNELS 6 Xposition Yposition Zposition Zrotation Yrotation Xrotation 
	JOINT LHipJoint
	{
		OFFSET 0.000000 0.000000 0.000000
		CHANNELS 3 Zrotation Yrotation Xrotation
		JOINT LeftUpLeg
		{
			OFFSET 1.363060 -1.794630 0.839290
			CHANNELS 3 Zrotation Yrotation Xrotation
			JOINT LeftLeg
			{
				OFFSET 2.448110 -6.726130 0.000000
				CHANNELS 3 Zrotation Yrotation Xrotation
				JOINT LeftFoot
				{
					OFFSET 2.562200 -7.039590 0.000000
					CHANNELS 3 Zrotation Yrotation Xrotation
					JOINT LeftToeBase
					{
						OFFSET 0.157640 -0.433110 2.322550
						CHANNELS 3 Zrotation Yrotation Xrotation
						End Site
						{
							OFFSET 0.000000 0.000000 0.000000
						}
					}
				}
			}
		}
	}
	JOINT RHipJoint
	{
		OFFSET 0.000000 0.000000 0.000000
		CHANNELS 3 Zrotation Yrotation Xrotation
		JOINT RightUpLeg
		{
			OFFSET -1.305520 -1.794630 0.839290
			CHANNELS 3 Zrotation Yrotation Xrotation
			JOINT RightLeg
			{
				OFFSET -2.542530 -6.985550 0.000000
				CHANNELS 3 Zrotation Yrotation Xrotation
				JOINT RightFoot
				{
					OFFSET -2.568260 -7.056230 0.000000
					CHANNELS 3 Zrotation Yrotation Xrotation
					JOINT RightToeBase
					{
						OFFSET -0.164730 -0.452590 2.363150
						CHANNELS 3 Zrotation Yrotation Xrotation
						End Site
						{
							OFFSET 0.000000 0.000000 0.000000
						}
					}
				}
			}
		}
	}
	JOINT LowerBack
	{
		OFFSET 0.000000 0.000000 0.000000
		CHANNELS 3 Zrotation Yrotation Xrotation
		JOINT Spine
		{
			OFFSET 0.028270 2.035590 -0.193380
			CHANNELS 3 Zrotation Yrotation Xrotation
			JOINT Spine1
			{
				OFFSET 0.056720 2.048850 -0.042750
				CHANNELS 3 Zrotation Yrotation Xrotation
				JOINT Neck
				{
					OFFSET 0.000000 0.000000 0.000000
					CHANNELS 3 Zrotation Yrotation Xrotation
					JOINT Neck1
					{
						OFFSET -0.054170 1.746240 0.172020
						CHANNELS 3 Zrotation Yrotation Xrotation
						JOINT Head
						{
							OFFSET 0.104070 1.761360 -0.123970
							CHANNELS 3 Zrotation Yrotation Xrotation
							End Site
							{
								OFFSET 0.000000 0.000000 0.000000
							}
						}
					}
				}
				JOINT LeftShoulder
				{
					OFFSET 0.000000 0.000000 0.000000
					CHANNELS 3 Zrotation Yrotation Xrotation
					JOINT LeftArm
					{
						OFFSET 3.362410 1.200890 -0.311210
						CHANNELS 3 Zrotation Yrotation Xrotation
						JOINT LeftForeArm
						{
							OFFSET 4.983000 -0.000000 -0.000000
							CHANNELS 3 Zrotation Yrotation Xrotation
							JOINT LeftHand
							{
								OFFSET 3.483560 -0.000000 -0.000000
								CHANNELS 3 Zrotation Yrotation Xrotation
								JOINT LeftFingerBase
								{
									OFFSET 0.000000 0.000000 0.000000
									CHANNELS 3 Zrotation Yrotation Xrotation
									JOINT LeftHandIndex1
									{
										OFFSET 0.715260 -0.000000 -0.000000
										CHANNELS 3 Zrotation Yrotation Xrotation
										End Site
										{
											OFFSET 0.000000 0.000000 0.000000
										}
									}
								}
								JOINT LThumb
								{
									OFFSET 0.000000 0.000000 0.000000
									CHANNELS 3 Zrotation Yrotation Xrotation
									End Site
									{
										OFFSET 0.000000 0.000000 0.000000
									}
								}
							}
						}
					}
				}
				JOINT RightShoulder
				{
					OFFSET 0.000000 0.000000 0.000000
					CHANNELS 3 Zrotation Yrotation Xrotation
					JOINT RightArm
					{
						OFFSET -3.136600 1.374050 -0.404650
						CHANNELS 3 Zrotation Yrotation Xrotation
						JOINT RightForeArm
						{
							OFFSET -5.241900 -0.000000 -0.000000
							CHANNELS 3 Zrotation Yrotation Xrotation
							JOINT RightHand
							{
								OFFSET -3.444170 -0.000000 -0.000000
								CHANNELS 3 Zrotation Yrotation Xrotation
								JOINT RightFingerBase
								{
									OFFSET 0.000000 0.000000 0.000000
									CHANNELS 3 Zrotation Yrotation Xrotation
									JOINT RightHandIndex1
									{
										OFFSET -0.622530 -0.000000 -0.000000
										CHANNELS 3 Zrotation Yrotation Xrotation
										End Site
										{
											OFFSET 0.000000 0.000000 0.000000
										}
									}
								}
								JOINT RThumb
								{
									OFFSET 0.000000 0.000000 0.000000
									CHANNELS 3 Zrotation Yrotation Xrotation
									End Site
									{
										OFFSET 0.000000 0.000000 0.000000
									}
								}
							}
						}
					}
				}
			}
		}
	}
}
MOTION
Frames: 10
Frame Time: 0.008333
-0.752919 16.329519 -12.050615 -2.604885 -2.696735 12.118325 10.923271 11.721326 5.043268 -31.841403 -25.328862 -20.130013 7.426534 7.697541 36.741500 2.149548 -0.274599 -24.600545 0.154400 2.532300 6.979200 -12.126092 -11.516805 5.636762 43.759081 24.012963 -19.073599 -7.038983 -8.549647 39.460042 -2.668196 -6.242013 -27.913809 -3.018900 -10.725500 31.359700 2.580222 -0.492397 -1.721032 4.108096 -0.146517 -3.350312 -1.515073 -0.311370 0.028577 -6.732539 -3.807567 -15.663851 5.664504 -3.190945 18.547944 -0.415200 -1.062900 9.366100 -6.955841 -3.278347 1.298386 -91.469062 1.445483 8.219198 23.631647 -27.678776 -3.863848 1.283030 3.818544 12.148723 12.209239 36.908919 6.480600 -7.125000 0.000000 0.000000 -24.419800 61.740900 -10.284100 6.802853 5.107917 1.475433 86.446182 3.949375 11.020992 -18.669754 22.213606 -2.553417 -1.898462 0.588439 -0.223912 -27.226698 17.199859 -7.802700 7.125000 0.000000 0.000000 1.669000 -11.481500 1.304000 
-0.758100 16.328064 -12.053614 -2.739413 -2.677688 12.125223 10.921538 11.732019 5.061405 -31.630474 -25.320837 -20.310830 7.455624 7.747781 36.908339 2.160253 -0.341509 -24.715626 0.162400 2.596400 7.157100 -12.119886 -11.505949 5.649080 43.924687 24.064584 -19.002185 -7.024332 -8.529196 39.397031 -2.668274 -6.169387 -27.888368 -3.128600 -10.900400 31.944500 2.696210 -0.518166 -1.707628 4.250579 -0.167253 -3.166126 -1.539497 -0.318738 0.097566 -6.758013 -3.840209 -15.887395 5.611857 -3.180245 18.577186 -0.449800 -1.063000 9.428100 -6.955426 -3.280531 1.288514 -91.505244 1.204357 8.254618 23.578040 -27.616868 -3.844973 1.266883 3.820283 12.403387 11.849777 36.945312 6.304700 -7.125000 0.000000 0.000000 -24.796800 61.692000 -10.425000 6.795191 5.134100 1.484894 86.349478 4.124720 11.236667 -18.780223 22.361525 -2.584964 -1.887308 0.562488 -0.507661 -27.034671 17.037853 -7.674800 7.125000 0.000000 0.000000 1.773900 -11.669800 1.379100 
-0.762464 16.326883 -12.051069 -2.780608 -2.741034 12.171958 10.919462 11.738835 5.071519 -31.555529 -25.317634 -20.386133 7.457261 7.755093 36.922194 2.169881 -0.316695 -24.779487 0.163000 2.601300 7.170700 -12.120153 -11.501886 5.658486 43.970386 24.094540 -19.004282 -7.019061 -8.520902 39.366168 -2.675994 -6.033360 -27.906206 -3.172500 -10.969100 32.175900 2.772835 -0.501230 -1.737374 4.299597 -0.141363 -3.042952 -1.605536 -0.303294 0.157077 -6.561196 -3.789841 -16.000339 5.516681 -3.112466 18.616899 -0.540100 -1.020700 9.474900 -6.952723 -3.274567 1.278994 -91.479278 1.111323 8.347454 23.557883 -27.607012 -3.841283 1.255352 3.818180 12.371155 11.764251 36.831882 6.243300 -7.125000 0.000000 0.000000 -24.776500 61.575500 -10.347300 6.793463 5.153273 1.482027 86.377153 4.251997 11.157098 -18.817005 22.403111 -2.592966 -1.885159 0.574698 -0.506118 -27.036694 17.201953 -7.743800 7.125000 0.000000 0.000000 1.784300 -11.503400 1.393300 
-0.768190 16.328064 -12.045524 -2.736608 -2.786821 12.289715 10.904601 11.742302 5.090597 -31.542499 -25.401113 -20.545534 7.467351 7.785150 37.017969 2.177404 -0.240739 -24.836519 0.196000 2.851000 7.864300 -12.121320 -11.510770 5.655683 43.916279 24.062982 -19.109293 -7.008730 -8.509949 39.303229 -2.670096 -5.862764 -27.830425 -3.221400 -11.045000 32.432000 2.812774 -0.458779 -1.785676 4.220190 -0.093488 -3.067676 -1.667747 -0.278391 0.161852 -6.385100 -3.733363 -15.937400 5.482861 -3.075175 18.644797 -0.583700 -0.989700 9.482600 -6.944494 -3.262304 1.277669 -91.381494 1.196222 8.621733 23.559236 -27.603522 -3.842629 1.243240 3.816885 12.044987 11.857273 36.630827 6.255900 -7.125000 0.000000 0.000000 -24.511300 61.421300 -10.139100 6.798809 5.146836 1.470963 86.473888 4.312120 11.005218 -18.777179 22.352725 -2.578361 -1.883246 0.580046 -0.439653 -27.039413 17.196836 -7.741200 7.125000 0.000000 0.000000 1.780900 -11.512500 1.390300 
-0.772826 16.331609 -12.031980 -2.495274 -2.747608 12.236719 10.896492 11.734030 5.103568 -31.844311 -25.400396 -20.393338 7.476208 7.794050 37.086953 2.185749 -0.173418 -24.883289 0.321700 3.645900 10.082500 -12.122652 -11.544427 5.617413 43.684264 23.728474 -19.089033 -7.012725 -8.484832 39.229508 -2.675647 -5.604881 -27.800302 -3.278300 -11.132500 32.728200 2.659763 -0.457341 -1.842914 4.055836 -0.128058 -2.965385 -1.589334 -0.288738 0.184476 -6.514825 -3.720429 -15.864144 5.560704 -3.061625 18.614415 -0.509900 -0.989900 9.445300 -6.924969 -3.265853 1.269357 -91.395471 1.212439 8.598612 23.496930 -27.506006 -3.810617 1.236069 3.778899 11.975396 11.887743 36.049381 6.176500 -7.125000 0.000000 0.000000 -24.000500 60.939700 -9.638300 6.806054 5.123346 1.459163 86.454668 4.325583 11.208292 -18.767643 22.359382 -2.581054 -1.891014 0.541378 -0.489674 -27.183587 16.694238 -7.580700 7.125000 0.000000 0.000000 1.649900 -11.999900 1.271300 
-0.780734 16.326974 -12.038162 -2.937991 -2.751540 12.307258 10.903069 11.755015 5.110991 -31.249522 -25.469778 -20.739919 7.508573 7.864084 37.283864 2.190237 -0.052216 -24.948351 0.279900 3.402800 9.402300 -12.110541 -11.520190 5.625124 44.208331 23.808508 -18.959065 -6.975672 -8.448242 39.109423 -2.664606 -5.592710 -27.710507 -3.366200 -11.265500 33.180400 2.967595 -0.461673 -1.623776 4.360255 -0.072258 -3.069459 -1.662090 -0.265273 0.040324 -6.667353 -3.692436 -15.760476 5.587511 -3.006325 18.585054 -0.468700 -0.973200 9.401700 -6.934140 -3.245794 1.265097 -91.511547 1.190433 8.239653 23.380692 -27.362892 -3.757616 1.213881 3.720861 12.216187 11.603869 35.239249 5.908800 -7.125000 0.000000 0.000000 -23.626400 60.199600 -9.059400 6.797236 5.113944 1.482948 86.372451 4.219544 11.608714 -18.886156 22.533914 -2.626455 -1.907457 0.484675 -0.582651 -27.550150 16.019140 -7.417900 7.125000 0.000000 0.000000 1.363300 -12.626600 1.032600 
-0.786552 16.323792 -12.034707 -3.196863 -2.736893 12.286945 10.904051 11.766401 5.114214 -30.921753 -25.431856 -20.878628 7.542985 7.922602 37.473128 2.205354 -0.033941 -25.087864 0.261400 3.289100 9.084600 -12.105028 -11.507322 5.615788 44.540634 23.763720 -18.760174 -6.952930 -8.410931 39.009109 -2.665597 -5.572133 -27.690359 -3.391700 -11.303600 33.310800 3.227596 -0.470603 -1.494862 4.503563 -0.054350 -3.053373 -1.745428 -0.254631 -0.024294 -6.730527 -3.689031 -15.721186 5.599084 -2.992890 18.598878 -0.449900 -0.969500 9.403600 -6.945297 -3.235533 1.259067 -91.561341 1.247740 8.162309 23.401892 -27.391936 -3.761729 1.173871 3.718685 12.252919 11.172934 35.111752 5.681400 -7.125000 0.000000 0.000000 -23.932800 60.002100 -9.071400 6.802961 5.116628 1.492223 86.343244 4.096467 11.825083 -19.024820 22.727905 -2.675193 -1.916280 0.467168 -0.699655 -27.773821 15.894595 -7.439000 7.125000 0.000000 0.000000 1.209800 -12.714700 0.914000 
-0.792551 16.321247 -12.031617 -3.287563 -2.674264 12.393192 10.889331 11.777633 5.141948 -30.713736 -25.478496 -21.194235 7.583059 7.997113 37.725312 2.208610 -0.165026 -25.180754 0.264700 3.310000 9.143000 -12.096164 -11.506391 5.619807 44.650164 23.772344 -18.791506 -6.930125 -8.392263 38.919136 -2.665447 -5.620255 -27.687405 -3.355400 -11.249200 33.125100 3.366030 -0.470845 -1.529166 4.528775 -0.050767 -3.021616 -1.782119 -0.250426 0.024960 -6.835376 -3.733331 -15.863024 5.647281 -3.019456 18.639398 -0.400100 -0.986900 9.461000 -6.955479 -3.248194 1.264346 -91.572772 1.213361 8.297977 23.480901 -27.480357 -3.790255 1.160888 3.734278 12.174461 11.063320 35.317633 5.660200 -7.125000 0.000000 0.000000 -24.197900 60.153800 -9.267400 6.805337 5.136501 1.500601 86.292458 4.144048 11.968273 -19.086103 22.809261 -2.697744 -1.922714 0.467638 -0.867070 -27.858075 16.020987 -7.521600 7.125000 0.000000 0.000000 1.167400 -12.569100 0.885600 
-0.799005 16.318065 -12.029435 -3.377023 -2.625063 12.532987 10.876160 11.791583 5.171944 -30.492717 -25.542846 -21.535771 7.613908 8.057864 37.924327 2.200738 -0.336830 -25.199816 0.290400 3.465700 9.578000 -12.086242 -11.506350 5.632583 44.749655 23.807000 -18.892059 -6.912280 -8.387022 38.867113 -2.655763 -5.674658 -27.635332 -3.292500 -11.154100 32.801300 3.475386 -0.466198 -1.608602 4.578748 -0.040971 -2.971248 -1.815711 -0.243464 0.105363 -6.879387 -3.750255 -16.045610 5.663579 -3.007780 18.675389 -0.380500 -0.983900 9.521200 -6.958100 -3.259957 1.267119 -91.575988 1.090726 8.411234 23.483789 -27.476406 -3.792188 1.185844 3.724838 12.150755 11.362928 35.284021 5.800600 -7.125000 0.000000 0.000000 -23.891500 60.191100 -9.163300 6.799547 5.160017 1.507929 86.256361 4.289720 11.991883 -19.108191 22.837982 -2.705546 -1.927030 0.447461 -0.899163 -27.934633 15.786862 -7.445900 7.125000 0.000000 0.000000 1.100500 -12.794400 0.829600 
-0.804823 16.315611 -12.025163 -3.449339 -2.627538 12.582173 10.863026 11.801484 5.186526 -30.340248 -25.516322 -21.744413 7.641329 8.106800 38.087201 2.201062 -0.472676 -25.261085 0.323200 3.654200 10.105900 -12.082466 -11.507825 5.629586 44.848106 23.773223 -18.892766 -6.903262 -8.378648 38.834467 -2.646094 -5.666927 -27.568939 -3.239500 -11.073000 32.526400 3.603198 -0.462164 -1.577192 4.586199 -0.029851 -2.961482 -1.883790 -0.236163 0.080299 -6.807545 -3.696449 -16.006483 5.649355 -2.953439 18.663637 -0.398600 -0.953700 9.501500 -6.953911 -3.249919 1.267951 -91.531265 1.113601 8.543976 23.481026 -27.476276 -3.794527 1.208684 3.721632 12.055055 11.666338 35.271507 5.944900 -7.125000 0.000000 0.000000 -23.595800 60.243600 -9.071800 6.801890 5.154148 1.503348 86.299144 4.358350 11.871610 -19.074050 22.798461 -2.693567 -1.926875 0.439591 -0.785355 -27.970850 15.592942 -7.372200 7.125000 0.000000 0.000000 1.060900 -12.990700 0.795400 
